<svg width="90" height="24" viewBox="0 0 90 24" fill="none" xmlns="http://www.w3.org/2000/svg">
<path d="M33.9926 12.4912C34.6283 12.8454 35.1515 13.3714 35.5022 14.009C35.8672 14.6599 36.0497 15.419 36.0497 16.2862C36.0497 17.1534 35.8672 17.9122 35.5022 18.5625C35.1515 19.2002 34.6283 19.7262 33.9926 20.0804C33.3397 20.443 32.6035 20.6291 31.8567 20.6204C30.6966 20.6204 29.8161 20.2559 29.2153 19.5269V20.4972H26.8871V8.88474H29.3279V12.9689C29.9438 12.2904 30.789 11.9512 31.8634 11.9512C32.608 11.9436 33.3417 12.1297 33.9926 12.4912ZM32.975 17.9835C33.3755 17.5614 33.5758 16.9956 33.5758 16.2862C33.5758 15.5767 33.3755 15.0107 32.975 14.5881C32.5744 14.166 32.0607 13.9547 31.4338 13.9542C30.807 13.9537 30.2928 14.165 29.8912 14.5881C29.4907 15.0107 29.2904 15.5767 29.2904 16.2862C29.2904 16.9956 29.4907 17.5614 29.8912 17.9835C30.2918 18.4066 30.8055 18.6179 31.4323 18.6174C32.0592 18.6169 32.5734 18.4056 32.975 17.9835Z" fill="#323232"/>
<path d="M43.9354 12.8825C44.6338 13.5038 44.9843 14.4401 44.9868 15.6913V20.4979H42.6999V19.4465C42.2413 20.2291 41.3859 20.6203 40.1336 20.6203C39.4867 20.6203 38.926 20.5107 38.4513 20.2914C38.0091 20.0998 37.6316 19.7848 37.3638 19.3841C37.1119 18.9926 36.9813 18.5354 36.9883 18.0698C36.9883 17.2873 37.283 16.6717 37.8723 16.223C38.4616 15.7744 39.3718 15.5491 40.603 15.5471H42.5437C42.5437 15.0154 42.382 14.6061 42.0585 14.3192C41.7351 14.0323 41.2499 13.8906 40.603 13.8941C40.154 13.8943 39.7079 13.9655 39.2812 14.1051C38.8822 14.2281 38.5085 14.4217 38.1779 14.6767L37.3015 12.9711C37.8047 12.6272 38.3638 12.3731 38.9538 12.22C39.5977 12.0415 40.263 11.9511 40.9312 11.9512C42.2355 11.9512 43.2369 12.2616 43.9354 12.8825ZM41.8542 18.6879C42.1778 18.4943 42.4219 18.1919 42.5429 17.8348V16.9733H40.8681C39.8668 16.9733 39.3661 17.302 39.3661 17.9594C39.3613 18.1041 39.3924 18.2477 39.4566 18.3775C39.5208 18.5072 39.6162 18.619 39.7341 18.703C39.9789 18.8857 40.3154 18.9768 40.7435 18.9763C41.1334 18.9839 41.5179 18.8842 41.855 18.6879H41.8542Z" fill="#323232"/>
<path d="M50.7038 12.2644C51.2481 12.0463 51.8306 11.9398 52.4169 11.9512V14.2043C52.146 14.1833 51.9635 14.1728 51.8694 14.1728C51.1684 14.1728 50.6206 14.3683 50.2261 14.7593C49.8316 15.1504 49.6333 15.7382 49.6313 16.5227V20.4972H47.1904V12.0766H49.5186V13.1874C49.819 12.7744 50.2297 12.4544 50.7038 12.2644Z" fill="#323232"/>
<path d="M61.9932 16.9734H55.6244C55.7258 17.4752 56.0176 17.9182 56.4385 18.2096C56.8656 18.51 57.3976 18.6602 58.0345 18.6602C58.4317 18.6674 58.8269 18.6012 59.2001 18.4649C59.5542 18.3249 59.8764 18.1146 60.1471 17.8468L61.4457 19.255C60.6526 20.1627 59.4947 20.6166 57.9722 20.6166C57.0208 20.6166 56.1809 20.4314 55.4524 20.0609C54.7536 19.7191 54.1672 19.1843 53.7626 18.5197C53.3609 17.8435 53.155 17.0689 53.1678 16.2824C53.157 15.4995 53.3601 14.7286 53.7551 14.0526C54.1389 13.3971 54.6968 12.8608 55.3668 12.5032C56.0664 12.142 56.8415 11.9516 57.6288 11.9475C58.416 11.9435 59.1931 12.1259 59.8963 12.4799C60.5561 12.8268 61.1021 13.3564 61.469 14.0053C61.8495 14.6677 62.04 15.437 62.0405 16.3132C62.0405 16.3472 62.0247 16.5673 61.9932 16.9734ZM56.2816 14.2696C55.9061 14.5826 55.6767 15.0102 55.5936 15.5524H59.7401C59.6766 15.0562 59.4312 14.6012 59.0514 14.2756C58.6659 13.9542 58.1764 13.7847 57.6747 13.7987C57.1215 13.7982 56.6571 13.9552 56.2816 14.2696Z" fill="#323232"/>
<path d="M67.282 17.1934L66.1088 18.3515V20.495H63.6672V8.88474H66.1088V15.4563L69.6763 12.0766H72.5865L69.0814 15.644L72.8997 20.495H69.9421L67.282 17.1934Z" fill="#323232"/>
<path d="M74.4957 20.362C73.8283 20.1898 73.2963 19.9732 72.8998 19.7124L73.7132 17.9602C74.1358 18.2224 74.5945 18.4213 75.0748 18.5505C75.5832 18.6981 76.1098 18.774 76.6392 18.7758C77.6721 18.7758 78.1886 18.5202 78.1886 18.009C78.1886 17.7697 78.0476 17.5977 77.7657 17.4931C77.4839 17.3884 77.051 17.2998 76.4672 17.2272C75.891 17.147 75.321 17.0265 74.7616 16.8667C74.3166 16.7335 73.9145 16.4853 73.596 16.1472C73.267 15.8033 73.1028 15.3131 73.1033 14.6767C73.0959 14.1665 73.2581 13.6683 73.5644 13.2603C73.8724 12.8487 74.321 12.528 74.9103 12.2982C75.4996 12.0684 76.1958 11.9535 76.9989 11.9535C77.5964 11.9538 78.192 12.0195 78.7751 12.1495C79.3644 12.2802 79.8521 12.4602 80.2382 12.6895L79.4248 14.4259C78.6846 14.0091 77.8483 13.7935 76.9989 13.8003C76.4777 13.8003 76.0867 13.8734 75.8258 14.0196C75.565 14.1658 75.4345 14.3535 75.4345 14.5828C75.4345 14.8437 75.5752 15.0262 75.8566 15.1303C76.138 15.2345 76.5866 15.3346 77.2025 15.4307C77.7725 15.5195 78.3368 15.6421 78.8923 15.798C79.3302 15.9282 79.7248 16.1742 80.0346 16.51C80.3581 16.8545 80.5198 17.3344 80.5198 17.9497C80.526 18.4537 80.3604 18.9447 80.0504 19.3421C79.7375 19.7492 79.2811 20.0649 78.6813 20.2892C78.0814 20.5135 77.3694 20.6256 76.5453 20.6256C75.8537 20.6248 75.165 20.5362 74.4957 20.362Z" fill="#323232"/>
<path d="M88.4214 12.8825C89.1223 13.5038 89.4728 14.4401 89.4728 15.6913V20.4979H87.1882V19.4465C86.7296 20.2291 85.8744 20.6204 84.6227 20.6204C83.9753 20.6204 83.4145 20.5107 82.9403 20.2914C82.498 20.1 82.1204 19.785 81.8528 19.3842C81.6009 18.9926 81.4703 18.5354 81.4773 18.0699C81.4773 17.2873 81.772 16.6717 82.3613 16.2231C82.9506 15.7744 83.8609 15.5491 85.092 15.5471H87.032C87.032 15.0154 86.8702 14.6061 86.5468 14.3192C86.2234 14.0323 85.7384 13.8906 85.092 13.8941C84.6428 13.8942 84.1964 13.9655 83.7695 14.1051C83.3706 14.2284 82.997 14.422 82.6662 14.6767L81.7875 12.9688C82.2907 12.6248 82.8497 12.3707 83.4398 12.2178C84.0843 12.0399 84.7501 11.9502 85.4187 11.9512C86.7215 11.9512 87.7224 12.2616 88.4214 12.8825ZM86.3403 18.688C86.664 18.4945 86.9082 18.192 87.029 17.8348V16.9733H85.3549C84.3535 16.9733 83.8528 17.302 83.8528 17.9594C83.8481 18.104 83.8792 18.2476 83.9432 18.3773C84.0073 18.507 84.1024 18.6188 84.2201 18.703C84.4657 18.8855 84.8014 18.9763 85.2295 18.9763C85.6192 18.984 86.0035 18.8842 86.3403 18.688Z" fill="#323232"/>
<path d="M12.8585 10.2651H10.5205V24H12.8585V10.2651Z" fill="#82C341"/>
<path d="M0 11.1423V17.5742C0 18.3492 0.307881 19.0925 0.855913 19.6405C1.40394 20.1886 2.14723 20.4964 2.92227 20.4964H9.35186V14.0676C9.35216 13.6836 9.27677 13.3032 9.13001 12.9483C8.98324 12.5934 8.76798 12.2709 8.49653 11.9993C8.22507 11.7276 7.90274 11.5121 7.54795 11.3651C7.19317 11.218 6.81289 11.1423 6.42884 11.1423H0ZM7.0139 18.1555H3.50657C3.19664 18.1555 2.8994 18.0324 2.68024 17.8132C2.46109 17.594 2.33797 17.2968 2.33797 16.9869V13.4803H5.84454C6.15454 13.4803 6.45186 13.6034 6.67113 13.8225C6.89041 14.0417 7.0137 14.3389 7.0139 14.6489V18.1555Z" fill="#82C341"/>
<path d="M16.9494 11.1423C16.1743 11.1423 15.431 11.4502 14.883 11.9982C14.335 12.5463 14.0271 13.2896 14.0271 14.0646V20.4934H20.4567C21.2312 20.4934 21.9741 20.186 22.522 19.6386C23.0699 19.0912 23.3782 18.3487 23.379 17.5742V11.1453L16.9494 11.1423ZM16.3651 14.6489C16.3653 14.3389 16.4886 14.0417 16.7078 13.8225C16.9271 13.6034 17.2244 13.4803 17.5344 13.4803H21.041V16.9869C21.041 17.2968 20.9179 17.594 20.6987 17.8132C20.4796 18.0324 20.1823 18.1555 19.8724 18.1555H16.3651V14.6489Z" fill="#82C341"/>
<path d="M7.14304 4.546C6.59581 5.09404 6.28845 5.83686 6.28845 6.61134C6.28845 7.38581 6.59581 8.12863 7.14304 8.67667L11.689 13.2227L16.2358 8.67667C16.783 8.12863 17.0904 7.38581 17.0904 6.61134C17.0904 5.83686 16.783 5.09404 16.2358 4.546L11.689 0L7.14304 4.546ZM9.20988 7.43897C8.99084 7.21983 8.8678 6.92268 8.8678 6.61284C8.8678 6.303 8.99084 6.00584 9.20988 5.7867L11.6883 3.3083L14.1667 5.7867C14.3857 6.00584 14.5088 6.303 14.5088 6.61284C14.5088 6.92268 14.3857 7.21983 14.1667 7.43897L11.6883 9.91738L9.20988 7.43897Z" fill="#82C341"/>
</svg>
